<svg xmlns="http://www.w3.org/2000/svg" viewBox="0 0 1200 920" font-family="'Courier New', monospace">
  <defs>
    <linearGradient id="bg" x1="0%" y1="0%" x2="100%" y2="100%">
      <stop offset="0%" style="stop-color:#0a0e17"/>
      <stop offset="50%" style="stop-color:#0d1321"/>
      <stop offset="100%" style="stop-color:#0a0e17"/>
    </linearGradient>
    <linearGradient id="boxCyan" x1="0%" y1="0%" x2="0%" y2="100%">
      <stop offset="0%" style="stop-color:#00f0ff;stop-opacity:0.14"/>
      <stop offset="100%" style="stop-color:#00f0ff;stop-opacity:0.02"/>
    </linearGradient>
    <linearGradient id="boxAmber" x1="0%" y1="0%" x2="0%" y2="100%">
      <stop offset="0%" style="stop-color:#ff9f1c;stop-opacity:0.14"/>
      <stop offset="100%" style="stop-color:#ff9f1c;stop-opacity:0.02"/>
    </linearGradient>
    <linearGradient id="boxGreen" x1="0%" y1="0%" x2="0%" y2="100%">
      <stop offset="0%" style="stop-color:#00ff88;stop-opacity:0.12"/>
      <stop offset="100%" style="stop-color:#00ff88;stop-opacity:0.02"/>
    </linearGradient>
    <linearGradient id="boxRed" x1="0%" y1="0%" x2="0%" y2="100%">
      <stop offset="0%" style="stop-color:#ff3366;stop-opacity:0.14"/>
      <stop offset="100%" style="stop-color:#ff3366;stop-opacity:0.02"/>
    </linearGradient>
    <linearGradient id="boxPurple" x1="0%" y1="0%" x2="0%" y2="100%">
      <stop offset="0%" style="stop-color:#a855f7;stop-opacity:0.14"/>
      <stop offset="100%" style="stop-color:#a855f7;stop-opacity:0.02"/>
    </linearGradient>
    <linearGradient id="boxTeal" x1="0%" y1="0%" x2="0%" y2="100%">
      <stop offset="0%" style="stop-color:#2dd4bf;stop-opacity:0.14"/>
      <stop offset="100%" style="stop-color:#2dd4bf;stop-opacity:0.02"/>
    </linearGradient>
    <linearGradient id="boxSlate" x1="0%" y1="0%" x2="0%" y2="100%">
      <stop offset="0%" style="stop-color:#64748b;stop-opacity:0.18"/>
      <stop offset="100%" style="stop-color:#64748b;stop-opacity:0.04"/>
    </linearGradient>
    <filter id="glow">
      <feGaussianBlur stdDeviation="2.5" result="b"/>
      <feMerge><feMergeNode in="b"/><feMergeNode in="SourceGraphic"/></feMerge>
    </filter>
    <marker id="aCyan" markerWidth="8" markerHeight="6" refX="8" refY="3" orient="auto">
      <polygon points="0 0,8 3,0 6" fill="#00f0ff" opacity="0.85"/>
    </marker>
    <marker id="aAmber" markerWidth="8" markerHeight="6" refX="8" refY="3" orient="auto">
      <polygon points="0 0,8 3,0 6" fill="#ff9f1c" opacity="0.85"/>
    </marker>
    <marker id="aGreen" markerWidth="8" markerHeight="6" refX="8" refY="3" orient="auto">
      <polygon points="0 0,8 3,0 6" fill="#00ff88" opacity="0.85"/>
    </marker>
    <marker id="aRed" markerWidth="8" markerHeight="6" refX="8" refY="3" orient="auto">
      <polygon points="0 0,8 3,0 6" fill="#ff3366" opacity="0.85"/>
    </marker>
    <marker id="aPurple" markerWidth="8" markerHeight="6" refX="8" refY="3" orient="auto">
      <polygon points="0 0,8 3,0 6" fill="#a855f7" opacity="0.85"/>
    </marker>
    <marker id="aTeal" markerWidth="8" markerHeight="6" refX="8" refY="3" orient="auto">
      <polygon points="0 0,8 3,0 6" fill="#2dd4bf" opacity="0.85"/>
    </marker>
    <pattern id="grid" width="40" height="40" patternUnits="userSpaceOnUse">
      <path d="M 40 0 L 0 0 0 40" fill="none" stroke="#1a2744" stroke-width="0.4"/>
    </pattern>
  </defs>

  <!-- BG -->

  <rect width="1200" height="920" fill="url(#bg)"/>
  <rect width="1200" height="920" fill="url(#grid)" opacity="0.35"/>

  <!-- Title bar -->

  <rect x="0" y="0" width="1200" height="48" fill="#0b1120" opacity="0.95"/>
  <line x1="0" y1="48" x2="1200" y2="48" stroke="#00f0ff" stroke-width="0.8" opacity="0.35"/>
  <text x="18" y="31" fill="#00f0ff" font-size="13" font-weight="bold" filter="url(#glow)" letter-spacing="3">▸ CLOUD HEALTH OFFICE</text>
  <text x="300" y="31" fill="#4a6a8a" font-size="11" letter-spacing="2">REPLACE MODE — FULL CORE ADMIN</text>
  <text x="1000" y="31" fill="#00ff88" font-size="10" letter-spacing="1">NO LEGACY DEPENDENCY</text>
  <circle cx="1170" cy="24" r="4" fill="#00ff88" opacity="0.7">
    <animate attributeName="opacity" values="0.7;0.3;0.7" dur="2s" repeatCount="indefinite"/>
  </circle>

  <!-- CHO Zone — much larger, encompasses everything -->

  <rect x="270" y="58" width="490" height="810" rx="4" fill="none" stroke="#00f0ff" stroke-width="0.8" stroke-dasharray="0" opacity="0.25"/>
  <text x="515" y="78" fill="#00f0ff" font-size="9" text-anchor="middle" opacity="0.5" letter-spacing="3">CHO — UNIFIED PLATFORM</text>

  <!-- ═══════ ROW 1: TRIPLE INGRESS ═══════ -->

  <!-- X12 278 -->

  <rect x="25" y="100" width="190" height="68" rx="3" fill="url(#boxSlate)" stroke="#64748b" stroke-width="1"/>
  <text x="120" y="120" fill="#94a3b8" font-size="10" text-anchor="middle" font-weight="bold">X12 278</text>
  <text x="120" y="136" fill="#64748b" font-size="8" text-anchor="middle">Clearinghouse / Availity</text>
  <text x="120" y="150" fill="#475569" font-size="7.5" text-anchor="middle">EDI Translator Built-In</text>

  <!-- FHIR PAS -->

  <rect x="25" y="185" width="190" height="68" rx="3" fill="url(#boxCyan)" stroke="#00f0ff" stroke-width="1"/>
  <text x="120" y="205" fill="#00f0ff" font-size="10" text-anchor="middle" font-weight="bold" filter="url(#glow)">FHIR PAS $submit</text>
  <text x="120" y="221" fill="#7ab8d4" font-size="8" text-anchor="middle">Da Vinci PAS IG</text>
  <text x="120" y="235" fill="#4a6a8a" font-size="7.5" text-anchor="middle">Native FHIR Endpoint</text>

  <!-- Blazor Portal -->

  <rect x="25" y="270" width="190" height="68" rx="3" fill="url(#boxTeal)" stroke="#2dd4bf" stroke-width="1"/>
  <text x="120" y="290" fill="#2dd4bf" font-size="10" text-anchor="middle" font-weight="bold">BLAZOR PORTAL</text>
  <text x="120" y="306" fill="#5eead4" font-size="8" text-anchor="middle">Manual Auth Entry</text>
  <text x="120" y="320" fill="#3a8a7a" font-size="7.5" text-anchor="middle">UM Staff / Care Mgmt</text>

  <!-- Arrows to Canonical -->

  <line x1="215" y1="134" x2="285" y2="177" stroke="#64748b" stroke-width="1.1" marker-end="url(#aCyan)" opacity="0.6"/>
  <line x1="215" y1="219" x2="285" y2="200" stroke="#00f0ff" stroke-width="1.1" marker-end="url(#aCyan)" opacity="0.6"/>
  <line x1="215" y1="300" x2="285" y2="218" stroke="#2dd4bf" stroke-width="1.1" marker-end="url(#aCyan)" opacity="0.6"/>

  <!-- Canonical Ingestion -->

  <rect x="290" y="167" width="230" height="65" rx="3" fill="url(#boxCyan)" stroke="#00f0ff" stroke-width="1.2"/>
  <text x="405" y="189" fill="#00f0ff" font-size="10" text-anchor="middle" font-weight="bold" filter="url(#glow)">CANONICAL INGESTION</text>
  <text x="405" y="206" fill="#7ab8d4" font-size="9" text-anchor="middle">278 ↔ FHIR ↔ Portal Normalize</text>
  <text x="405" y="220" fill="#4a6a8a" font-size="8" text-anchor="middle">Unified Auth Request Model</text>

  <!-- ═══════ ROW 2: PROVIDER VERIFICATION ═══════ -->

  <line x1="405" y1="232" x2="405" y2="262" stroke="#00f0ff" stroke-width="1.2" marker-end="url(#aCyan)" opacity="0.6"/>

  <rect x="290" y="267" width="230" height="92" rx="3" fill="url(#boxAmber)" stroke="#ff9f1c" stroke-width="1.2"/>
  <text x="405" y="289" fill="#ff9f1c" font-size="10" text-anchor="middle" font-weight="bold" filter="url(#glow)">PROVIDER VERIFICATION</text>
  <text x="405" y="306" fill="#d4a66a" font-size="9" text-anchor="middle">ProviderVerificationService</text>
  <line x1="310" y1="314" x2="500" y2="314" stroke="#ff9f1c" stroke-width="0.4" opacity="0.3"/>
  <text x="405" y="330" fill="#8a7a5a" font-size="8" text-anchor="middle">NPI Active? · OIG/LEIE Clear?</text>
  <text x="405" y="344" fill="#8a7a5a" font-size="8" text-anchor="middle">PECOS Enrolled? · Taxonomy?</text>

  <!-- External sources -->

  <rect x="585" y="267" width="140" height="25" rx="2" fill="url(#boxAmber)" stroke="#ff9f1c" stroke-width="0.6" opacity="0.7"/>
  <text x="655" y="284" fill="#ff9f1c" font-size="8" text-anchor="middle">NPPES NPI Registry</text>
  <rect x="585" y="296" width="140" height="25" rx="2" fill="url(#boxAmber)" stroke="#ff9f1c" stroke-width="0.6" opacity="0.7"/>
  <text x="655" y="313" fill="#ff9f1c" font-size="8" text-anchor="middle">OIG LEIE Database</text>
  <rect x="585" y="325" width="140" height="25" rx="2" fill="url(#boxAmber)" stroke="#ff9f1c" stroke-width="0.6" opacity="0.7"/>
  <text x="655" y="342" fill="#ff9f1c" font-size="8" text-anchor="middle">PECOS / Medicare</text>

  <line x1="520" y1="285" x2="583" y2="280" stroke="#ff9f1c" stroke-width="0.6" stroke-dasharray="3,3" opacity="0.5"/>
  <line x1="520" y1="308" x2="583" y2="308" stroke="#ff9f1c" stroke-width="0.6" stroke-dasharray="3,3" opacity="0.5"/>
  <line x1="520" y1="332" x2="583" y2="338" stroke="#ff9f1c" stroke-width="0.6" stroke-dasharray="3,3" opacity="0.5"/>

  <!-- Fail branch -->

  <rect x="585" y="365" width="140" height="32" rx="2" fill="url(#boxRed)" stroke="#ff3366" stroke-width="0.8"/>
  <text x="655" y="385" fill="#ff3366" font-size="9" text-anchor="middle" font-weight="bold">✖ DENY — Excluded</text>
  <line x1="520" y1="340" x2="583" y2="378" stroke="#ff3366" stroke-width="0.7" stroke-dasharray="4,3" marker-end="url(#aRed)" opacity="0.5"/>
  <text x="558" y="362" fill="#ff3366" font-size="7" opacity="0.5" transform="rotate(-40 558 362)">FAIL</text>

  <line x1="405" y1="359" x2="405" y2="392" stroke="#00ff88" stroke-width="1.2" marker-end="url(#aGreen)" opacity="0.6"/>
  <text x="420" y="382" fill="#00ff88" font-size="7" opacity="0.6">PASS ▾</text>

  <!-- ═══════ ROW 3: TX RULES / PEMS ═══════ -->

  <rect x="290" y="397" width="230" height="95" rx="3" fill="url(#boxPurple)" stroke="#a855f7" stroke-width="1.2"/>
  <text x="405" y="419" fill="#a855f7" font-size="10" text-anchor="middle" font-weight="bold" filter="url(#glow)">TX STATE RULES ENGINE</text>
  <text x="405" y="436" fill="#c084fc" font-size="9" text-anchor="middle">Texas HHSC / TDI Mandates</text>
  <line x1="310" y1="444" x2="500" y2="444" stroke="#a855f7" stroke-width="0.4" opacity="0.3"/>
  <text x="405" y="459" fill="#7c5aaa" font-size="8" text-anchor="middle">PEMS Enrollment Validation</text>
  <text x="405" y="473" fill="#7c5aaa" font-size="8" text-anchor="middle">72hr Urgent / 14-day Std SLA</text>
  <text x="405" y="487" fill="#7c5aaa" font-size="8" text-anchor="middle">STAR / STAR+PLUS Rules</text>

  <!-- PEMS callout -->

  <rect x="585" y="410" width="155" height="65" rx="2" fill="url(#boxPurple)" stroke="#a855f7" stroke-width="0.6" opacity="0.7"/>
  <text x="662" y="428" fill="#a855f7" font-size="8" text-anchor="middle" font-weight="bold">TX PEMS VALIDATION</text>
  <text x="662" y="442" fill="#7c5aaa" font-size="7.5" text-anchor="middle">Active enrollment status</text>
  <text x="662" y="454" fill="#7c5aaa" font-size="7.5" text-anchor="middle">Service area · County match</text>
  <text x="662" y="466" fill="#7c5aaa" font-size="7.5" text-anchor="middle">Rendering vs Billing NPI</text>
  <line x1="520" y1="450" x2="583" y2="445" stroke="#a855f7" stroke-width="0.6" stroke-dasharray="3,3" opacity="0.5"/>

  <line x1="405" y1="492" x2="405" y2="522" stroke="#a855f7" stroke-width="1.2" marker-end="url(#aPurple)" opacity="0.6"/>

  <!-- ═══════ ROW 4: DECISION ENGINE ═══════ -->

  <rect x="290" y="527" width="230" height="80" rx="3" fill="url(#boxGreen)" stroke="#00ff88" stroke-width="1.2"/>
  <text x="405" y="550" fill="#00ff88" font-size="10" text-anchor="middle" font-weight="bold" filter="url(#glow)">DECISION ENGINE</text>
  <text x="405" y="567" fill="#6ad4a0" font-size="9" text-anchor="middle">PriorAuthDecisionEngine</text>
  <line x1="310" y1="575" x2="500" y2="575" stroke="#00ff88" stroke-width="0.4" opacity="0.3"/>
  <text x="405" y="590" fill="#4a8a6a" font-size="8" text-anchor="middle">Clinical Rules · UM Guidelines</text>
  <text x="405" y="602" fill="#4a8a6a" font-size="8" text-anchor="middle">Approve / Pend / Deny</text>

  <!-- RFAI -->

  <rect x="585" y="527" width="140" height="38" rx="2" fill="url(#boxCyan)" stroke="#00f0ff" stroke-width="0.8"/>
  <text x="655" y="545" fill="#00f0ff" font-size="9" text-anchor="middle" font-weight="bold">RFAI CALLBACK</text>
  <text x="655" y="558" fill="#4a6a8a" font-size="8" text-anchor="middle">Request Add'l Info</text>
  <line x1="520" y1="555" x2="583" y2="546" stroke="#00f0ff" stroke-width="0.7" stroke-dasharray="4,3" marker-end="url(#aCyan)" opacity="0.6"/>
  <text x="548" y="545" fill="#00f0ff" font-size="7" opacity="0.5">PEND</text>

  <!-- SLA -->

  <rect x="585" y="573" width="140" height="30" rx="2" fill="url(#boxRed)" stroke="#ff3366" stroke-width="0.6" opacity="0.8"/>
  <text x="655" y="592" fill="#ff3366" font-size="8" text-anchor="middle">⏱ SLA WATCHDOG</text>
  <line x1="520" y1="595" x2="583" y2="588" stroke="#ff3366" stroke-width="0.5" stroke-dasharray="3,3" opacity="0.4"/>

  <!-- Arrow down to CHO Persistence -->

  <line x1="405" y1="607" x2="405" y2="640" stroke="#00ff88" stroke-width="1.2" marker-end="url(#aGreen)" opacity="0.6"/>
  <text x="420" y="630" fill="#00ff88" font-size="7" opacity="0.6">PERSIST ▾</text>

  <!-- ═══════ ROW 5: CHO NATIVE PERSISTENCE — THE KEY DIFFERENCE ═══════ -->

  <rect x="290" y="645" width="230" height="100" rx="3" fill="url(#boxCyan)" stroke="#00f0ff" stroke-width="1.8"/>
  <rect x="290" y="645" width="230" height="24" rx="3" fill="#00f0ff" opacity="0.08"/>
  <text x="405" y="663" fill="#00f0ff" font-size="10" text-anchor="middle" font-weight="bold" filter="url(#glow)">CHO — SYSTEM OF RECORD</text>
  <text x="405" y="686" fill="#7ab8d4" font-size="8.5" text-anchor="middle">Auth · Claims · Member · Provider</text>
  <text x="405" y="702" fill="#7ab8d4" font-size="8.5" text-anchor="middle">FHIR-Native Data Store</text>
  <text x="405" y="718" fill="#4a6a8a" font-size="8" text-anchor="middle">MongoDB + Event Sourcing</text>
  <text x="405" y="732" fill="#4a6a8a" font-size="8" text-anchor="middle">ICoreAdminAdapter → Self</text>

  <!-- NO QNXT callout -->

  <rect x="280" y="648" width="18" height="94" rx="2" fill="#00f0ff" opacity="0.06"/>

  <!-- Services fanning out from persistence -->

  <rect x="585" y="640" width="155" height="105" rx="3" fill="url(#boxTeal)" stroke="#2dd4bf" stroke-width="0.8"/>
  <text x="662" y="658" fill="#2dd4bf" font-size="8" text-anchor="middle" font-weight="bold" letter-spacing="1">CHO SERVICES</text>
  <line x1="600" y1="666" x2="725" y2="666" stroke="#2dd4bf" stroke-width="0.3" opacity="0.3"/>
  <text x="600" y="682" fill="#5eead4" font-size="7.5">▸ claims-service</text>
  <text x="600" y="695" fill="#5eead4" font-size="7.5">▸ premium-billing-service</text>
  <text x="600" y="708" fill="#5eead4" font-size="7.5">▸ capitation-service</text>
  <text x="600" y="721" fill="#5eead4" font-size="7.5">▸ member-enrollment-svc</text>
  <text x="600" y="734" fill="#5eead4" font-size="7.5">▸ terminology-service</text>
  <line x1="520" y1="695" x2="583" y2="695" stroke="#2dd4bf" stroke-width="0.6" stroke-dasharray="3,3" opacity="0.4"/>

  <!-- ═══════ ROW 6: OUTBOUND ═══════ -->

  <line x1="380" y1="745" x2="350" y2="778" stroke="#00f0ff" stroke-width="1" marker-end="url(#aCyan)" opacity="0.5"/>
  <line x1="430" y1="745" x2="460" y2="778" stroke="#64748b" stroke-width="1" marker-end="url(#aCyan)" opacity="0.5"/>

  <rect x="290" y="783" width="110" height="55" rx="3" fill="url(#boxCyan)" stroke="#00f0ff" stroke-width="0.8"/>
  <text x="345" y="803" fill="#00f0ff" font-size="9" text-anchor="middle" font-weight="bold">FHIR Response</text>
  <text x="345" y="818" fill="#4a6a8a" font-size="7.5" text-anchor="middle">ClaimResponse</text>
  <text x="345" y="830" fill="#4a6a8a" font-size="7.5" text-anchor="middle">Da Vinci PAS</text>

  <rect x="415" y="783" width="110" height="55" rx="3" fill="url(#boxSlate)" stroke="#64748b" stroke-width="0.8"/>
  <text x="470" y="803" fill="#94a3b8" font-size="9" text-anchor="middle" font-weight="bold">278 Response</text>
  <text x="470" y="818" fill="#64748b" font-size="7.5" text-anchor="middle">X12 278 / 835</text>
  <text x="470" y="830" fill="#64748b" font-size="7.5" text-anchor="middle">Clearinghouse</text>

  <!-- ═══════ LEGEND ═══════ -->

  <rect x="830" y="100" width="340" height="268" rx="4" fill="#0b1120" opacity="0.85" stroke="#1a2744" stroke-width="0.8"/>
  <text x="1000" y="125" fill="#4a6a8a" font-size="10" text-anchor="middle" letter-spacing="2" font-weight="bold">LEGEND</text>
  <line x1="850" y1="135" x2="1150" y2="135" stroke="#1a2744" stroke-width="0.6"/>
  <rect x="860" y="148" width="12" height="12" rx="1" fill="url(#boxCyan)" stroke="#00f0ff" stroke-width="0.8"/>
  <text x="882" y="158" fill="#7ab8d4" font-size="9">CHO Platform / FHIR Native</text>
  <rect x="860" y="170" width="12" height="12" rx="1" fill="url(#boxAmber)" stroke="#ff9f1c" stroke-width="0.8"/>
  <text x="882" y="180" fill="#d4a66a" font-size="9">Provider Verification Gate</text>
  <rect x="860" y="192" width="12" height="12" rx="1" fill="url(#boxPurple)" stroke="#a855f7" stroke-width="0.8"/>
  <text x="882" y="202" fill="#c084fc" font-size="9">TX State Rules / PEMS</text>
  <rect x="860" y="214" width="12" height="12" rx="1" fill="url(#boxGreen)" stroke="#00ff88" stroke-width="0.8"/>
  <text x="882" y="224" fill="#6ad4a0" font-size="9">Decision Engine / Outcome</text>
  <rect x="860" y="236" width="12" height="12" rx="1" fill="url(#boxRed)" stroke="#ff3366" stroke-width="0.8"/>
  <text x="882" y="246" fill="#ff3366" font-size="9">Fail / Deny / Watchdog</text>
  <rect x="860" y="258" width="12" height="12" rx="1" fill="url(#boxTeal)" stroke="#2dd4bf" stroke-width="0.8"/>
  <text x="882" y="268" fill="#5eead4" font-size="9">CHO Microservices</text>
  <rect x="860" y="280" width="12" height="12" rx="1" fill="url(#boxSlate)" stroke="#64748b" stroke-width="0.8"/>
  <text x="882" y="290" fill="#94a3b8" font-size="9">EDI / External Channels</text>
  <line x1="850" y1="305" x2="1150" y2="305" stroke="#1a2744" stroke-width="0.6"/>
  <text x="860" y="322" fill="#00f0ff" font-size="8.5" font-weight="bold">REPLACE MODE</text>
  <text x="860" y="338" fill="#4a6a8a" font-size="8">No QNXT · No legacy adapter</text>
  <text x="860" y="354" fill="#4a6a8a" font-size="8">ICoreAdminAdapter → CHO self</text>

  <!-- Key Difference callout -->

  <rect x="830" y="390" width="340" height="120" rx="4" fill="#0b1120" opacity="0.85" stroke="#00f0ff" stroke-width="0.8"/>
  <text x="1000" y="413" fill="#00f0ff" font-size="9" text-anchor="middle" letter-spacing="2" font-weight="bold">KEY DIFFERENCE</text>
  <line x1="850" y1="423" x2="1150" y2="423" stroke="#00f0ff" stroke-width="0.3" opacity="0.3"/>
  <text x="860" y="442" fill="#7ab8d4" font-size="8.5">In augment mode, CHO writes to QNXT.</text>
  <text x="860" y="458" fill="#7ab8d4" font-size="8.5">In replace mode, CHO IS the system</text>
  <text x="860" y="474" fill="#7ab8d4" font-size="8.5">of record. Same pipeline — the</text>
  <text x="860" y="490" fill="#7ab8d4" font-size="8.5">ICoreAdminAdapter simply points</text>
  <text x="860" y="506" fill="#00f0ff" font-size="8.5" font-weight="bold">to CHO's own FHIR-native store.</text>

  <!-- Architecture note -->

  <rect x="830" y="530" width="340" height="120" rx="4" fill="#0b1120" opacity="0.85" stroke="#2dd4bf" stroke-width="0.6"/>
  <text x="1000" y="553" fill="#2dd4bf" font-size="9" text-anchor="middle" letter-spacing="2" font-weight="bold">ARCHITECTURE</text>
  <line x1="850" y1="563" x2="1150" y2="563" stroke="#2dd4bf" stroke-width="0.3" opacity="0.3"/>
  <text x="860" y="581" fill="#5eead4" font-size="8">▸ 28+ .NET microservices on AKS</text>
  <text x="860" y="597" fill="#5eead4" font-size="8">▸ FHIR R4 native data model</text>
  <text x="860" y="613" fill="#5eead4" font-size="8">▸ Event-sourced audit trail</text>
  <text x="860" y="629" fill="#5eead4" font-size="8">▸ Blazor portal for ops staff</text>
  <text x="860" y="645" fill="#3a8a7a" font-size="7">No HL7 shims · No stored proc bridges</text>

  <!-- Vendor neutral note -->

  <rect x="830" y="670" width="340" height="85" rx="4" fill="#0b1120" opacity="0.85" stroke="#a855f7" stroke-width="0.6"/>
  <text x="1000" y="693" fill="#a855f7" font-size="9" text-anchor="middle" letter-spacing="2" font-weight="bold">VENDOR NEUTRAL</text>
  <line x1="850" y1="703" x2="1150" y2="703" stroke="#a855f7" stroke-width="0.3" opacity="0.3"/>
  <text x="860" y="721" fill="#c084fc" font-size="8">Same compliance pipeline works for</text>
  <text x="860" y="737" fill="#c084fc" font-size="8">any plan — QNXT, Facets, HealthEdge,</text>
  <text x="860" y="751" fill="#c084fc" font-size="8">Amisys, or standalone replace mode.</text>

  <!-- Footer -->

  <rect x="0" y="880" width="1200" height="40" fill="#0b1120" opacity="0.9"/>
  <line x1="0" y1="880" x2="1200" y2="880" stroke="#1a2744" stroke-width="0.6"/>
  <text x="20" y="904" fill="#2a4a6a" font-size="8" letter-spacing="1">AURELIANWARE, INC. · CLOUD HEALTH OFFICE · CONFIDENTIAL</text>
  <text x="1180" y="904" fill="#2a4a6a" font-size="8" text-anchor="end" letter-spacing="1">v1.0 · APR 2026 · REPLACE MODE</text>
</svg>